<svg width="150" height="32" viewBox="0 0 150 32" fill="none" xmlns="http://www.w3.org/2000/svg">
<path d="M28.8654 15.2895C28.922 15.8 28.9499 16.2392 28.9499 16.6079C28.9499 20.6938 27.6302 24.1553 24.9911 26.992C22.3521 29.8288 19.0427 31.2474 15.0634 31.2474C11.0841 31.2474 7.62709 29.8152 4.7776 26.9496C1.92769 24.0839 0.503357 20.6369 0.503357 16.6075C0.503357 12.5781 1.92769 9.13104 4.7776 6.26583C7.6275 3.40102 11.0558 1.968 15.0634 1.968C17.8575 1.968 20.3415 2.68472 22.5149 4.11691C24.6879 5.54993 26.3953 7.49967 27.6379 9.96776L23.5311 11.16C22.7127 9.5995 21.5628 8.35783 20.0806 7.43492C18.5984 6.51202 16.9263 6.05098 15.0634 6.05098C12.1557 6.05098 9.67991 7.07986 7.63365 9.13805C5.5874 11.1962 4.56468 13.6858 4.56468 16.6071C4.56468 19.5284 5.58781 22.0196 7.63365 24.0778C9.6795 26.1359 12.1557 27.1648 15.0634 27.1648C17.5753 27.1648 19.6777 26.4341 21.3716 24.9722C23.0655 23.5103 24.1518 21.6295 24.6317 19.3296H14.0477V15.247L28.8654 15.2895Z" fill="#202023"/>
<path d="M45.628 8.44237C45.628 8.44237 37.4643 12.4156 37.756 21.8159V30.9171H33.6947V13.2816C33.6947 13.2816 43.7372 8.44237 45.628 8.44237Z" fill="#202023"/>
<path d="M64.8635 10.5043H68.9248V30.9171H64.8635V27.9319C63.1688 30.1418 60.9084 31.247 58.0835 31.247C55.2587 31.247 52.7197 30.2272 50.7998 28.1871C48.8799 26.1471 47.9204 23.6546 47.9204 20.7107C47.9204 17.7667 48.8799 15.2751 50.7998 13.235C52.7197 11.195 55.1475 10.1744 58.0835 10.1744C61.0196 10.1744 63.1684 11.2795 64.8635 13.4895V10.5043ZM53.8672 25.2753C55.1241 26.5351 56.6428 27.1644 58.4228 27.1644C60.2028 27.1644 61.7207 26.5347 62.9777 25.2753C64.2346 24.0159 64.8635 22.4942 64.8635 20.7107C64.8635 18.9271 64.2346 17.4067 62.9777 16.1469C61.7207 14.887 60.202 14.2569 58.4228 14.2569C56.6436 14.2569 55.1241 14.887 53.8672 16.1469C52.6102 17.4067 51.9821 18.928 51.9821 20.7107C51.9821 22.4934 52.6102 24.0155 53.8672 25.2753Z" fill="#202023"/>
<path d="M85.0963 10.1744C87.5528 10.1744 89.4793 10.9397 90.8769 12.4697C92.2742 14 92.9728 16.2384 92.9728 19.1857V30.9171H88.9115V19.5271C88.9115 17.7989 88.5648 16.4883 87.8724 15.5959C87.1799 14.7035 86 14.2569 84.3333 14.2569C82.9762 14.2569 81.7045 14.76 80.5173 15.7658C79.33 16.7716 78.7372 18.0822 78.7372 19.697V30.9171H74.6759V10.5043H78.7372V12.8924C80.3191 11.0804 82.4388 10.1744 85.0959 10.1744H85.0963Z" fill="#202023"/>
<path d="M99.4128 8.19801V14.49H107.466C107.466 13.41 106.556 12.5179 105.453 12.4709L103.583 12.4239V9.37188L99.4128 8.19801Z" fill="#202023"/>
<path d="M104.265 26.6143C103.73 26.218 103.462 25.0423 103.462 23.0872V17.4092H99.4004V24.2345C99.4004 28.91 101.107 31.247 104.519 31.247C105.704 31.247 106.705 31.0486 107.523 30.6523V26.5298C106.169 27.2102 105.083 27.2378 104.265 26.6143Z" fill="#202023"/>
<path d="M117.183 7.5471C116.587 8.14422 115.867 8.44279 115.02 8.44279C114.174 8.44279 113.453 8.14464 112.858 7.5471C112.262 6.94997 111.964 6.22418 111.964 5.37056C111.964 4.51693 112.262 3.79196 112.858 3.19443C113.453 2.5973 114.174 2.29832 115.02 2.29832C115.867 2.29832 116.587 2.5973 117.183 3.19443C117.779 3.79155 118.077 4.51734 118.077 5.37056C118.077 6.22377 117.779 6.94997 117.183 7.5471ZM37.7982 7.5471C37.2022 8.14422 36.4818 8.44279 35.6355 8.44279C34.7892 8.44279 34.0684 8.14464 33.4727 7.5471C32.8766 6.94997 32.5792 6.22418 32.5792 5.37056C32.5792 4.51693 32.8766 3.79196 33.4727 3.19443C34.0684 2.5973 34.7892 2.29832 35.6355 2.29832C36.4818 2.29832 37.2022 2.5973 37.7982 3.19443C38.3939 3.79155 38.6917 4.51734 38.6917 5.37056C38.6917 6.22377 38.3935 6.94997 37.7982 7.5471ZM112.99 30.9175V14.3848C113.125 12.1686 111.529 10.6564 111.529 10.6564L117.051 11.8973V30.9175H112.99Z" fill="#202023"/>
<path d="M138.319 16.5852L138.312 16.5782L149.708 5.12229C148.847 3.90989 147.84 2.80801 146.714 1.84263L135.183 13.4334L135.177 13.44L123.567 1.77005C122.435 2.72842 121.422 3.82411 120.554 5.03074L132.048 16.5852L120.671 28.0213C121.553 29.2176 122.577 30.3018 123.719 31.2474L135.177 19.73L146.563 31.176C147.699 30.2234 148.717 29.1327 149.592 27.9306L138.312 16.5922L138.319 16.5856L138.319 16.5852Z" fill="#202023"/>
<path d="M44.2032 6.97023C50.3092 4.82091 56.6818 3.47737 63.0876 2.61839C73.6725 1.24516 84.5347 1.39898 94.9653 3.79202C96.2001 4.07532 97.5112 4.4077 98.726 4.76565C99.5686 5.00978 100.675 5.34958 101.506 5.63288C102.737 6.03207 103.947 6.49517 105.149 6.97023L105.136 7.00487C93.0028 2.4658 79.8125 1.4064 66.9791 2.53179C59.281 3.20479 51.5268 4.71864 44.2032 6.97064V6.97023Z" fill="#202023"/>
<path d="M76.5153 1.5201L75.8963 0.897836C75.7588 0.75966 75.536 0.759658 75.3985 0.897834L74.7795 1.5201C74.642 1.65828 74.642 1.88231 74.7795 2.02048L75.3985 2.64275C75.536 2.78093 75.7588 2.78092 75.8963 2.64275L76.5153 2.02048C76.6528 1.8823 76.6528 1.65828 76.5153 1.5201Z" fill="#202023"/>
<path d="M64.0986 2.23458L63.4795 1.61231C63.3421 1.47413 63.1192 1.47414 62.9818 1.61231L62.3627 2.23458C62.2253 2.37275 62.2253 2.59678 62.3627 2.73496L62.9818 3.35722C63.1192 3.4954 63.3421 3.4954 63.4795 3.35723L64.0986 2.73496C64.236 2.59678 64.236 2.37275 64.0986 2.23458Z" fill="#202023"/>
<path d="M88.2208 2.23445L87.6017 1.61218C87.4643 1.47401 87.2414 1.47401 87.104 1.61219L86.4849 2.23446C86.3475 2.37263 86.3475 2.59666 86.4849 2.73483L87.104 3.3571C87.2414 3.49528 87.4643 3.49528 87.6017 3.3571L88.2208 2.73484C88.3582 2.59666 88.3582 2.37263 88.2208 2.23445Z" fill="#202023"/>
<path d="M99.0624 4.28363L98.4433 3.66136C98.3059 3.52319 98.083 3.52319 97.9456 3.66137L97.3265 4.28364C97.1891 4.42181 97.1891 4.64583 97.3265 4.78401L97.9456 5.40628C98.083 5.54446 98.3059 5.54446 98.4433 5.40628L99.0624 4.78402C99.1998 4.64584 99.1998 4.42181 99.0624 4.28363Z" fill="#202023"/>
<path d="M53.821 4.28389L53.202 3.66163C53.0646 3.52345 52.8417 3.52345 52.7042 3.66163L52.0852 4.2839C51.9477 4.42207 51.9477 4.6461 52.0852 4.78427L52.7042 5.40654C52.8417 5.54472 53.0646 5.54472 53.202 5.40654L53.821 4.78427C53.9585 4.6461 53.9585 4.42207 53.821 4.28389Z" fill="#202023"/>
</svg>
