<svg xmlns="http://www.w3.org/2000/svg" xmlns:xlink="http://www.w3.org/1999/xlink"><defs><symbol fill="none" viewBox="0 0 24 24" id="facebook"><g clip-path="url(#facebook_a)"><path fill="#777" d="M12 0c6.627 0 12 5.373 12 12 0 5.99-4.388 10.954-10.125 11.854V15.47h2.796L17.203 12h-3.328V9.749c0-.255.034-.508.111-.742.176-.528.579-.959 1.333-1.09q.232-.042.512-.042h1.513V4.922s-1.374-.234-2.686-.234c-2.742 0-4.533 1.66-4.533 4.668V12H7.078v3.469h3.047v8.385C4.388 22.954 0 17.99 0 12 0 5.373 5.373 0 12 0" /></g><defs></defs></symbol><clipPath id="facebook_a"><path fill="#fff" d="M0 0h24v24H0z" /></clipPath><symbol fill="none" viewBox="0 0 24 24" id="linkedin"><g clip-path="url(#linkedin_a)"><path fill="#777" fill-rule="evenodd" d="M24 12c0 6.627-5.373 12-12 12S0 18.627 0 12 5.373 0 12 0s12 5.373 12 12M5.231 19h2.903V9.653H5.23zM5 6.681c0 .928.753 1.697 1.68 1.697.929 0 1.682-.769 1.682-1.697a1.681 1.681 0 1 0-3.362 0M16.1 19H19v-5.134c0-2.513-.54-4.447-3.477-4.447-1.413 0-2.36.775-2.747 1.509h-.04V9.653H9.952V19h2.9v-4.628c0-1.219.23-2.397 1.74-2.397 1.487 0 1.509 1.39 1.509 2.475z" clip-rule="evenodd" /></g><defs></defs></symbol><clipPath id="linkedin_a"><path fill="#fff" d="M0 0h24v24H0z" /></clipPath><symbol fill="none" viewBox="0 0 150 32" id="logo"><path fill="#202023" d="M28.865 15.29q.085.765.085 1.318 0 6.129-3.959 10.384t-9.928 4.255c-3.979 0-7.436-1.432-10.285-4.297Q.503 22.65.503 16.608q0-6.045 4.275-10.342t10.285-4.298q4.192 0 7.452 2.149t5.123 5.85L23.53 11.16a9.5 9.5 0 0 0-3.45-3.725Q17.857 6.05 15.063 6.05q-4.36 0-7.43 3.087-3.068 3.087-3.068 7.47 0 4.381 3.069 7.47 3.069 3.087 7.43 3.087 3.767 0 6.308-2.193t3.26-5.642H14.048v-4.083zM45.628 8.442s-8.164 3.974-7.872 13.374v9.101h-4.061V13.282s10.042-4.84 11.933-4.84M64.864 10.504h4.06v20.413h-4.06v-2.985q-2.543 3.315-6.78 3.315c-2.825 0-5.364-1.02-7.284-3.06q-2.88-3.06-2.88-7.476t2.88-7.476q2.88-3.06 7.284-3.06c2.936 0 5.084 1.104 6.78 3.314zM53.867 25.275q1.886 1.89 4.556 1.89t4.555-1.89 1.886-4.564q-.001-2.675-1.886-4.564t-4.555-1.89q-2.67 0-4.556 1.89-1.885 1.89-1.885 4.564t1.885 4.564M85.096 10.174q3.685 0 5.78 2.296 2.097 2.294 2.097 6.716v11.731h-4.061v-11.39q0-2.593-1.04-3.931-1.038-1.34-3.539-1.34-2.035 0-3.816 1.51-1.78 1.509-1.78 3.931v11.22h-4.061V10.504h4.061v2.388q2.373-2.718 6.359-2.718M99.413 8.198v6.292h8.053c0-1.08-.91-1.972-2.013-2.02l-1.87-.046V9.372zM104.265 26.614q-.803-.594-.803-3.527V17.41H99.4v6.826q0 7.012 5.119 7.012 1.777 0 3.004-.595V26.53q-2.031 1.02-3.258.084M117.183 7.547a2.94 2.94 0 0 1-2.163.896 2.94 2.94 0 0 1-2.162-.896 2.97 2.97 0 0 1-.894-2.176q0-1.28.894-2.177a2.94 2.94 0 0 1 2.162-.896q1.27.001 2.163.896.894.897.894 2.177t-.894 2.176m-79.385 0a2.94 2.94 0 0 1-2.163.896 2.94 2.94 0 0 1-2.162-.896q-.894-.896-.894-2.176t.894-2.177a2.94 2.94 0 0 1 2.163-.896q1.268.001 2.162.896.894.897.894 2.177a2.97 2.97 0 0 1-.894 2.176m75.192 23.37V14.386c.135-2.216-1.461-3.729-1.461-3.729l5.522 1.241v19.02zM138.319 16.585l-.007-.007 11.396-11.456a18.2 18.2 0 0 0-2.994-3.28l-11.531 11.591-.006.007-11.61-11.67a18.2 18.2 0 0 0-3.013 3.26l11.494 11.555-11.377 11.436a18.3 18.3 0 0 0 3.048 3.226l11.458-11.517 11.386 11.446a18.3 18.3 0 0 0 3.029-3.245l-11.28-11.339zM44.203 6.97c6.106-2.15 12.479-3.493 18.885-4.352C73.672 1.245 84.535 1.4 94.965 3.792c1.235.283 2.546.616 3.761.974.843.244 1.949.584 2.78.867 1.231.4 2.441.862 3.643 1.337l-.013.035c-12.133-4.54-25.323-5.599-38.157-4.473A111 111 0 0 0 44.203 6.97" /><path fill="#202023" d="m76.515 1.52-.619-.622a.35.35 0 0 0-.498 0l-.618.622a.355.355 0 0 0 0 .5l.618.623a.35.35 0 0 0 .498 0l.62-.623a.355.355 0 0 0 0-.5M64.099 2.235l-.62-.623a.35.35 0 0 0-.497 0l-.62.623a.355.355 0 0 0 0 .5l.62.622a.35.35 0 0 0 .498 0l.619-.622a.355.355 0 0 0 0-.5M88.22 2.234l-.618-.622a.35.35 0 0 0-.498 0l-.62.622a.355.355 0 0 0 0 .5l.62.623a.35.35 0 0 0 .498 0l.619-.622a.355.355 0 0 0 0-.5M99.062 4.284l-.619-.623a.35.35 0 0 0-.497 0l-.62.623a.355.355 0 0 0 0 .5l.62.622a.35.35 0 0 0 .497 0l.62-.622a.355.355 0 0 0 0-.5M53.821 4.284l-.619-.622a.35.35 0 0 0-.498 0l-.619.622a.355.355 0 0 0 0 .5l.62.623a.35.35 0 0 0 .497 0l.619-.623a.355.355 0 0 0 0-.5" /></symbol><symbol fill="none" viewBox="0 0 24 24" id="reddit"><g fill="#777" clip-path="url(#reddit_a)"><path d="M9.25 12C8.56 12 8 12.561 8 13.25c0 .687.561 1.248 1.25 1.248.687 0 1.248-.561 1.248-1.249S9.937 12 9.25 12M12.014 17.46c.477 0 2.105-.056 2.961-.913a.36.36 0 0 0 .029-.463.33.33 0 0 0-.464 0c-.547.534-1.684.73-2.512.73s-1.979-.197-2.512-.73a.33.33 0 0 0-.463 0 .33.33 0 0 0 0 .463c.842.843 2.484.913 2.961.913M13.502 13.25c0 .687.561 1.248 1.249 1.248S16 13.937 16 13.25 15.439 12 14.75 12c-.687 0-1.248.561-1.248 1.25" /><path fill-rule="evenodd" d="M24 12c0 6.627-5.373 12-12 12S0 18.627 0 12 5.373 0 12 0s12 5.373 12 12m-5.754-1.754c.968 0 1.754.786 1.754 1.754 0 .716-.435 1.333-1.01 1.614.027.168.042.337.042.52 0 2.694-3.13 4.87-7.004 4.87s-7.003-2.176-7.003-4.87c0-.183.014-.366.042-.534A1.75 1.75 0 0 1 4.028 12c0-.968.786-1.754 1.754-1.754.464 0 .899.196 1.207.49 1.208-.883 2.878-1.43 4.744-1.487l.885-4.182a.34.34 0 0 1 .14-.197c.07-.042.154-.056.239-.042l2.905.618a1.21 1.21 0 0 1 1.109-.702c.687 0 1.249.561 1.249 1.249s-.562 1.25-1.25 1.25a1.25 1.25 0 0 1-1.249-1.194l-2.596-.547-.8 3.747c1.825.07 3.48.632 4.674 1.488.308-.309.73-.491 1.207-.491" clip-rule="evenodd" /></g><defs></defs></symbol><clipPath id="reddit_a"><path fill="#fff" d="M0 0h24v24H0z" /></clipPath><symbol fill="none" viewBox="0 0 33 33" id="telegram"><rect width="32" height="32" x=".667" y=".264" fill="#fff" fill-opacity=".04" rx="16" /><path fill="#fff" fill-rule="evenodd" d="M8.867 15.491q7.028-3.062 9.373-4.037c4.464-1.857 5.392-2.18 5.996-2.19.133-.003.43.03.623.187.163.132.207.31.229.435.021.125.048.41.027.633-.242 2.541-1.289 8.709-1.821 11.556-.226 1.204-.67 1.608-1.099 1.648-.933.085-1.642-.617-2.546-1.21-1.415-.927-2.214-1.505-3.587-2.41-1.587-1.045-.558-1.62.346-2.56.237-.245 4.35-3.986 4.429-4.325.01-.043.02-.2-.075-.284-.094-.084-.233-.055-.333-.033q-.212.049-6.78 4.482-.961.66-1.742.643c-.574-.012-1.678-.324-2.5-.59-1.006-.328-1.806-.501-1.736-1.057q.054-.434 1.196-.888" clip-rule="evenodd" /></symbol><symbol fill="none" viewBox="0 0 24 24" id="twitter"><g clip-path="url(#twitter_a)"><path fill="#777" fill-rule="evenodd" d="M12 24c6.627 0 12-5.373 12-12S18.627 0 12 0 0 5.373 0 12s5.373 12 12 12m6.172-18h-2.147l-3.537 4.054L9.43 6H5l5.293 6.939-5.016 5.749h2.148l3.872-4.437 3.383 4.437H19l-5.518-7.314zm-1.71 11.4h-1.19L7.508 7.22h1.276z" clip-rule="evenodd" /></g><defs></defs></symbol><clipPath id="twitter_a"><path fill="#fff" d="M0 0h24v24H0z" /></clipPath><symbol fill="none" viewBox="0 0 24 24" id="youtube"><g fill="#777" clip-path="url(#youtube_a)"><path d="m10.16 9.664 4.704 2.677-4.705 2.676z" /><path fill-rule="evenodd" d="M24 12c0 6.627-5.373 12-12 12S0 18.627 0 12 5.373 0 12 0s12 5.373 12 12m-3.376-4.02a2.26 2.26 0 0 0-1.592-1.602C17.625 6 12 6 12 6s-5.625 0-7.032.378A2.26 2.26 0 0 0 3.376 7.98C3 9.393 3 12.34 3 12.34s0 2.948.376 4.362a2.26 2.26 0 0 0 1.592 1.601c1.407.379 7.032.379 7.032.379s5.625 0 7.032-.379a2.26 2.26 0 0 0 1.592-1.601C21 15.288 21 12.34 21 12.34s0-2.948-.376-4.361" clip-rule="evenodd" /></g><defs></defs></symbol><clipPath id="youtube_a"><path fill="#fff" d="M0 0h24v24H0z" /></clipPath></defs></svg>