<svg width="33" height="33" viewBox="0 0 33 33" fill="none" xmlns="http://www.w3.org/2000/svg">
<rect x="0.666748" y="0.263672" width="32" height="32" rx="16" fill="white" fill-opacity="0.04"/>
<path fill-rule="evenodd" clip-rule="evenodd" d="M8.86674 15.4912C13.5525 13.4497 16.677 12.1038 18.2404 11.4536C22.7041 9.59695 23.6317 9.27444 24.2362 9.26379C24.3692 9.26144 24.6665 9.2944 24.8591 9.45066C25.0217 9.58261 25.0664 9.76085 25.0878 9.88595C25.1092 10.011 25.1359 10.296 25.1147 10.5187C24.8728 13.0603 23.8261 19.228 23.2937 22.0746C23.0683 23.2791 22.6247 23.683 22.1952 23.7225C21.2618 23.8084 20.553 23.1057 19.6489 22.5131C18.2343 21.5857 17.4351 21.0085 16.0619 20.1036C14.4749 19.0578 15.5037 18.483 16.4081 17.5437C16.6448 17.2978 20.7574 13.5571 20.837 13.2177C20.847 13.1753 20.8562 13.0171 20.7622 12.9336C20.6682 12.85 20.5295 12.8786 20.4294 12.9013C20.2875 12.9335 18.0276 14.4273 13.6496 17.3825C13.0081 17.823 12.4271 18.0376 11.9065 18.0264C11.3326 18.014 10.2286 17.7019 9.40793 17.4351C8.40134 17.1079 7.60131 16.9349 7.67098 16.3792C7.70726 16.0898 8.10585 15.7938 8.86674 15.4912Z" fill="white"/>
</svg>
